<svg xmlns="http://www.w3.org/2000/svg" xmlns:xlink="http://www.w3.org/1999/xlink" width="536" zoomAndPan="magnify" viewBox="0 0 402 268.499992" height="358" preserveAspectRatio="xMidYMid meet" version="1.0"><defs><g/></defs><path stroke-linecap="butt" transform="matrix(0.748426, 0, 0, 0.748606, 82.992039, 161.91366)" fill="none" stroke-linejoin="miter" d="M 0.000198428 2.499976 L 325.088705 2.499976 " stroke="#ffffff" stroke-width="5" stroke-opacity="1" stroke-miterlimit="4"/><path stroke-linecap="butt" transform="matrix(0.000000000000000046, -0.74834, 0.748606, 0.000000000000000046, 322.957893, 165.301845)" fill="none" stroke-linejoin="miter" d="M 0.00142161 2.498286 L 88.045235 2.498286 " stroke="#ffffff" stroke-width="5" stroke-opacity="1" stroke-miterlimit="4"/><g fill="#ffffff" fill-opacity="1"><g transform="translate(104.334187, 140.821124)"><g><path d="M 14.59375 -19.132812 L 0.574219 -19.132812 L 0.574219 -16.863281 L 6.394531 -16.863281 L 6.394531 0 L 8.773438 0 L 8.773438 -16.863281 L 14.59375 -16.863281 Z M 14.59375 -19.132812 "/></g></g></g><g fill="#ffffff" fill-opacity="1"><g transform="translate(125.759274, 140.821124)"><g><path d="M 5 -2.296875 L 5 -8.71875 L 12.710938 -8.71875 L 12.710938 -10.933594 L 5 -10.933594 L 5 -16.835938 L 13.417969 -16.835938 L 13.417969 -19.132812 L 2.597656 -19.132812 L 2.597656 0 L 13.71875 0 L 13.71875 -2.296875 Z M 5 -2.296875 "/></g></g></g><g fill="#ffffff" fill-opacity="1"><g transform="translate(147.102391, 140.821124)"><g><path d="M 11.097656 0.300781 C 15.605469 0.300781 19.160156 -2.40625 20.253906 -6.722656 L 17.820312 -6.722656 C 16.808594 -3.800781 14.320312 -2.050781 11.097656 -2.050781 C 6.832031 -2.050781 3.746094 -5.136719 3.746094 -9.539062 C 3.746094 -13.9375 6.832031 -17.082031 11.097656 -17.082031 C 14.238281 -17.082031 16.699219 -15.414062 17.710938 -12.65625 L 20.171875 -12.65625 C 19.078125 -16.78125 15.523438 -19.40625 11.097656 -19.40625 C 5.410156 -19.40625 1.285156 -15.277344 1.285156 -9.539062 C 1.285156 -3.828125 5.410156 0.300781 11.097656 0.300781 Z M 11.097656 0.300781 "/></g></g></g><g fill="#ffffff" fill-opacity="1"><g transform="translate(174.538779, 140.821124)"><g><path d="M 14.894531 -19.132812 L 14.894531 -10.988281 L 5 -10.988281 L 5 -19.132812 L 2.597656 -19.132812 L 2.597656 0 L 5 0 L 5 -8.691406 L 14.894531 -8.691406 L 14.894531 0 L 17.300781 0 L 17.300781 -19.132812 Z M 14.894531 -19.132812 "/></g></g></g><g fill="#ffffff" fill-opacity="1"><g transform="translate(200.690936, 140.821124)"><g/></g></g><g fill="#ffffff" fill-opacity="1"><g transform="translate(214.082729, 140.821124)"><g><path d="M 10.332031 -9.484375 L 10.332031 -7.214844 L 17.957031 -7.214844 C 17.273438 -4.101562 14.511719 -2.023438 11.015625 -2.023438 C 6.695312 -2.023438 3.746094 -5.109375 3.746094 -9.539062 C 3.746094 -13.9375 6.777344 -17.054688 11.015625 -17.054688 C 14.238281 -17.054688 16.972656 -15.222656 17.792969 -12.4375 L 20.28125 -12.4375 C 19.433594 -16.535156 15.550781 -19.40625 10.960938 -19.40625 C 5.382812 -19.40625 1.3125 -15.222656 1.3125 -9.539062 C 1.3125 -3.855469 5.382812 0.328125 11.015625 0.328125 C 16.535156 0.328125 20.472656 -3.71875 20.582031 -9.484375 Z M 10.332031 -9.484375 "/></g></g></g><g fill="#ffffff" fill-opacity="1"><g transform="translate(242.120245, 140.821124)"><g><path d="M 5 -2.296875 L 5 -8.71875 L 12.710938 -8.71875 L 12.710938 -10.933594 L 5 -10.933594 L 5 -16.835938 L 13.417969 -16.835938 L 13.417969 -19.132812 L 2.597656 -19.132812 L 2.597656 0 L 13.71875 0 L 13.71875 -2.296875 Z M 5 -2.296875 "/></g></g></g><g fill="#ffffff" fill-opacity="1"><g transform="translate(263.46336, 140.821124)"><g><path d="M 5 -2.296875 L 5 -8.71875 L 12.710938 -8.71875 L 12.710938 -10.933594 L 5 -10.933594 L 5 -16.835938 L 13.417969 -16.835938 L 13.417969 -19.132812 L 2.597656 -19.132812 L 2.597656 0 L 13.71875 0 L 13.71875 -2.296875 Z M 5 -2.296875 "/></g></g></g><g fill="#ffffff" fill-opacity="1"><g transform="translate(284.806476, 140.821124)"><g><path d="M 14.265625 0 L 17.355469 0 L 9.730469 -9.921875 L 16.726562 -19.132812 L 13.664062 -19.132812 L 7.542969 -10.988281 L 5 -10.988281 L 5 -19.132812 L 2.597656 -19.132812 L 2.597656 0 L 5 0 L 5 -8.746094 L 7.542969 -8.746094 Z M 14.265625 0 "/></g></g></g><path stroke-linecap="butt" transform="matrix(0.749815, 0, 0, 0.748606, 138.355086, 99.396791)" fill="none" stroke-linejoin="miter" d="M 0.000510319 2.501637 L 251.599144 2.501637 " stroke="#ffffff" stroke-width="5" stroke-opacity="1" stroke-miterlimit="4"/><g fill="#ffffff" fill-opacity="1"><g transform="translate(75.261103, 109.572283)"><g><path d="M 32.925781 -19.683594 C 28.285156 -21.523438 23.125 -21.28125 18.203125 -21.242188 C 12.683594 -21.164062 7.160156 -20.921875 1.679688 -20.523438 C 0.359375 -20.402344 1.800781 -18.324219 2.71875 -18.363281 C 6.480469 -18.683594 10.203125 -18.882812 13.921875 -19.003906 C 10.160156 -11.5625 7.679688 -3.601562 6.601562 4.679688 C 6.480469 5.5625 8.5625 7.039062 8.722656 5.761719 C 9.800781 -2.441406 12.320312 -10.363281 16.121094 -17.722656 C 16.320312 -18.082031 16.003906 -18.640625 15.5625 -19.042969 C 16.480469 -19.042969 17.402344 -19.082031 18.363281 -19.082031 C 23.082031 -19.164062 28.445312 -19.644531 32.964844 -17.84375 C 34.566406 -17.203125 33.925781 -19.28125 32.925781 -19.683594 Z M 32.925781 -19.683594 "/></g></g></g><g fill="#ffffff" fill-opacity="1"><g transform="translate(92.742678, 109.572283)"><g><path d="M 18.601562 -5.160156 C 16.320312 -3.878906 13.523438 -2.640625 10.921875 -1.878906 C 11.203125 -2.71875 11.601562 -3.558594 11.800781 -4.480469 C 12.042969 -5.601562 12 -6.722656 11.121094 -7.5625 C 9.960938 -8.640625 8.921875 -8.121094 7.761719 -7.441406 C 5.402344 -6.039062 3.199219 -4.441406 1.199219 -2.601562 C 1.480469 -3.441406 1.800781 -4.320312 2.160156 -5.160156 C 2.921875 -7.121094 3.71875 -9.042969 4.640625 -10.921875 C 6.402344 -14.683594 8.480469 -18.324219 10.800781 -21.804688 C 11.402344 -22.683594 9.480469 -24.445312 8.960938 -23.683594 C 6.199219 -19.5625 3.761719 -15.203125 1.761719 -10.679688 C 0.761719 -8.441406 -0.160156 -6.160156 -0.960938 -3.839844 C -1.640625 -1.960938 -1.878906 -0.238281 -0.160156 1.121094 C 0.121094 1.320312 0.761719 1.640625 1.039062 1.28125 C 3.519531 -1.441406 6.441406 -3.761719 9.640625 -5.5625 C 9.480469 -5.039062 9.28125 -4.480469 9.082031 -3.960938 C 8.800781 -3.242188 8.519531 -2.398438 8.5625 -1.601562 C 8.761719 0.160156 10.480469 0.878906 11.960938 0.359375 C 14.640625 -0.519531 17.121094 -2.28125 19.5625 -3.640625 C 20.5625 -4.242188 19.402344 -5.640625 18.601562 -5.160156 Z M 18.601562 -5.160156 "/></g></g></g><g fill="#ffffff" fill-opacity="1"><g transform="translate(111.584378, 109.572283)"><g><path d="M 10.363281 -5 C 8 -3.160156 2.242188 -0.320312 -0.160156 0 C -0.078125 -0.320312 0.0390625 -0.640625 0.160156 -0.921875 C 1.601562 -1.601562 6.960938 -3.679688 4.679688 -6.039062 C 3.121094 -7.679688 1 -6.199219 -0.199219 -4.921875 C -1.519531 -3.480469 -3.359375 -0.640625 -1.921875 1.28125 C -1 2.558594 0.359375 2.441406 1.679688 2 C 5.28125 0.71875 8.601562 -1.679688 11.761719 -3.71875 C 12.523438 -4.242188 11.203125 -5.640625 10.363281 -5 Z M 10.363281 -5 "/></g></g></g><path stroke-linecap="butt" transform="matrix(0.000000000000000046, -0.750204, 0.748606, 0.000000000000000046, 81.115371, 165.225114)" fill="none" stroke-linejoin="miter" d="M -0.00193135 2.501864 L 43.91839 2.501864 " stroke="#ffffff" stroke-width="5" stroke-opacity="1" stroke-miterlimit="4"/><g fill="#ffffff" fill-opacity="1"><g transform="translate(126.858569, 188.061673)"><g><path d="M 4.921875 0 L 3.546875 0 L 3.546875 -10.796875 L 0.4375 -10.796875 L 0.4375 -12.078125 L 8.03125 -12.078125 L 8.03125 -10.796875 L 4.921875 -10.796875 Z M 4.921875 0 "/></g></g></g><g fill="#ffffff" fill-opacity="1"><g transform="translate(135.318275, 188.061673)"><g><path d="M 9.859375 -2.015625 L 12.296875 -8.453125 L 13.640625 -8.453125 L 10.265625 0 L 9.390625 0 L 6.890625 -6.28125 L 4.390625 0 L 3.546875 0 L 0.171875 -8.453125 L 1.546875 -8.453125 L 3.96875 -2.078125 L 6.46875 -8.453125 L 7.34375 -8.453125 Z M 9.859375 -2.015625 "/></g></g></g><g fill="#ffffff" fill-opacity="1"><g transform="translate(149.130041, 188.061673)"><g><path d="M 4.9375 -8.625 C 5.707031 -8.625 6.410156 -8.445312 7.046875 -8.09375 C 7.691406 -7.75 8.195312 -7.253906 8.5625 -6.609375 C 8.925781 -5.972656 9.109375 -5.25 9.109375 -4.4375 C 9.109375 -4.15625 9.097656 -3.941406 9.078125 -3.796875 L 2.046875 -3.796875 C 2.128906 -2.953125 2.425781 -2.28125 2.9375 -1.78125 C 3.457031 -1.28125 4.125 -1.03125 4.9375 -1.03125 C 6.132812 -1.03125 7 -1.519531 7.53125 -2.5 L 8.90625 -2.5 C 8.5625 -1.632812 8.050781 -0.972656 7.375 -0.515625 C 6.695312 -0.0546875 5.882812 0.171875 4.9375 0.171875 C 4.144531 0.171875 3.421875 -0.0195312 2.765625 -0.40625 C 2.117188 -0.789062 1.609375 -1.316406 1.234375 -1.984375 C 0.867188 -2.648438 0.6875 -3.398438 0.6875 -4.234375 C 0.6875 -5.054688 0.867188 -5.800781 1.234375 -6.46875 C 1.609375 -7.132812 2.117188 -7.660156 2.765625 -8.046875 C 3.421875 -8.429688 4.144531 -8.625 4.9375 -8.625 Z M 4.9375 -7.421875 C 4.175781 -7.421875 3.546875 -7.203125 3.046875 -6.765625 C 2.546875 -6.328125 2.234375 -5.726562 2.109375 -4.96875 L 7.75 -4.96875 C 7.664062 -5.707031 7.363281 -6.300781 6.84375 -6.75 C 6.320312 -7.195312 5.6875 -7.421875 4.9375 -7.421875 Z M 4.9375 -7.421875 "/></g></g></g><g fill="#ffffff" fill-opacity="1"><g transform="translate(158.850072, 188.061673)"><g><path d="M 8.125 -8.453125 L 9.421875 -8.453125 L 9.421875 0 L 8.125 0 L 8.125 -1.296875 C 7.769531 -0.847656 7.320312 -0.488281 6.78125 -0.21875 C 6.238281 0.0390625 5.65625 0.171875 5.03125 0.171875 C 4.257812 0.171875 3.535156 -0.0195312 2.859375 -0.40625 C 2.191406 -0.789062 1.660156 -1.316406 1.265625 -1.984375 C 0.878906 -2.660156 0.6875 -3.410156 0.6875 -4.234375 C 0.6875 -5.046875 0.878906 -5.785156 1.265625 -6.453125 C 1.660156 -7.128906 2.191406 -7.660156 2.859375 -8.046875 C 3.535156 -8.429688 4.257812 -8.625 5.03125 -8.625 C 5.65625 -8.625 6.238281 -8.492188 6.78125 -8.234375 C 7.320312 -7.972656 7.769531 -7.617188 8.125 -7.171875 Z M 5.125 -1.03125 C 5.6875 -1.03125 6.203125 -1.171875 6.671875 -1.453125 C 7.148438 -1.734375 7.523438 -2.113281 7.796875 -2.59375 C 8.078125 -3.082031 8.21875 -3.628906 8.21875 -4.234375 C 8.21875 -4.828125 8.078125 -5.363281 7.796875 -5.84375 C 7.523438 -6.332031 7.148438 -6.71875 6.671875 -7 C 6.203125 -7.28125 5.6875 -7.421875 5.125 -7.421875 C 4.5625 -7.421875 4.039062 -7.28125 3.5625 -7 C 3.09375 -6.71875 2.71875 -6.332031 2.4375 -5.84375 C 2.164062 -5.363281 2.03125 -4.828125 2.03125 -4.234375 C 2.03125 -3.628906 2.164062 -3.082031 2.4375 -2.59375 C 2.71875 -2.113281 3.09375 -1.734375 3.5625 -1.453125 C 4.039062 -1.171875 4.5625 -1.03125 5.125 -1.03125 Z M 5.125 -1.03125 "/></g></g></g><g fill="#ffffff" fill-opacity="1"><g transform="translate(169.57145, 188.061673)"><g><path d="M 4.0625 -4.375 L 8.359375 0 L 6.59375 0 L 2.671875 -4.046875 L 2.671875 0 L 1.375 0 L 1.375 -12.4375 L 2.671875 -12.4375 L 2.671875 -4.609375 L 6.40625 -8.453125 L 8.0625 -8.453125 Z M 4.0625 -4.375 "/></g></g></g><g fill="#ffffff" fill-opacity="1"><g transform="translate(178.013885, 188.061673)"><g><path d="M 2.59375 0 L 1.296875 0 L 1.296875 -8.453125 L 2.59375 -8.453125 Z M 2.703125 -10.078125 L 1.203125 -10.078125 L 1.203125 -11.671875 L 2.703125 -11.671875 Z M 2.703125 -10.078125 "/></g></g></g><g fill="#ffffff" fill-opacity="1"><g transform="translate(181.898443, 188.061673)"><g><path d="M 5.265625 -8.625 C 5.941406 -8.625 6.539062 -8.460938 7.0625 -8.140625 C 7.59375 -7.816406 8 -7.367188 8.28125 -6.796875 C 8.570312 -6.234375 8.71875 -5.609375 8.71875 -4.921875 L 8.71875 0 L 7.421875 0 L 7.421875 -4.921875 C 7.421875 -5.671875 7.210938 -6.273438 6.796875 -6.734375 C 6.390625 -7.191406 5.820312 -7.421875 5.09375 -7.421875 C 4.632812 -7.421875 4.210938 -7.3125 3.828125 -7.09375 C 3.453125 -6.882812 3.148438 -6.585938 2.921875 -6.203125 C 2.703125 -5.828125 2.59375 -5.398438 2.59375 -4.921875 L 2.59375 0 L 1.296875 0 L 1.296875 -8.453125 L 2.59375 -8.453125 L 2.59375 -7.34375 C 2.9375 -7.769531 3.332031 -8.085938 3.78125 -8.296875 C 4.238281 -8.515625 4.734375 -8.625 5.265625 -8.625 Z M 5.265625 -8.625 "/></g></g></g><g fill="#ffffff" fill-opacity="1"><g transform="translate(191.82565, 188.061673)"><g><path d="M 7.953125 -8.453125 L 9.25 -8.453125 L 9.25 -0.515625 C 9.25 0.273438 9.070312 0.988281 8.71875 1.625 C 8.363281 2.257812 7.863281 2.75 7.21875 3.09375 C 6.582031 3.445312 5.851562 3.625 5.03125 3.625 C 4.039062 3.625 3.179688 3.359375 2.453125 2.828125 C 1.722656 2.304688 1.226562 1.59375 0.96875 0.6875 L 2.265625 0.6875 C 2.472656 1.21875 2.820312 1.640625 3.3125 1.953125 C 3.800781 2.265625 4.375 2.421875 5.03125 2.421875 C 5.925781 2.421875 6.632812 2.148438 7.15625 1.609375 C 7.6875 1.066406 7.953125 0.359375 7.953125 -0.515625 L 7.953125 -1.625 C 7.585938 -1.175781 7.148438 -0.820312 6.640625 -0.5625 C 6.128906 -0.300781 5.5625 -0.171875 4.9375 -0.171875 C 4.15625 -0.171875 3.441406 -0.347656 2.796875 -0.703125 C 2.148438 -1.066406 1.632812 -1.566406 1.25 -2.203125 C 0.875 -2.847656 0.6875 -3.582031 0.6875 -4.40625 C 0.6875 -5.21875 0.875 -5.945312 1.25 -6.59375 C 1.632812 -7.238281 2.148438 -7.738281 2.796875 -8.09375 C 3.441406 -8.445312 4.15625 -8.625 4.9375 -8.625 C 5.5625 -8.625 6.128906 -8.492188 6.640625 -8.234375 C 7.148438 -7.984375 7.585938 -7.632812 7.953125 -7.1875 Z M 5.046875 -1.375 C 5.609375 -1.375 6.117188 -1.503906 6.578125 -1.765625 C 7.035156 -2.035156 7.394531 -2.398438 7.65625 -2.859375 C 7.914062 -3.328125 8.046875 -3.84375 8.046875 -4.40625 C 8.046875 -4.96875 7.914062 -5.476562 7.65625 -5.9375 C 7.394531 -6.394531 7.035156 -6.753906 6.578125 -7.015625 C 6.117188 -7.285156 5.609375 -7.421875 5.046875 -7.421875 C 4.484375 -7.421875 3.96875 -7.285156 3.5 -7.015625 C 3.039062 -6.753906 2.679688 -6.394531 2.421875 -5.9375 C 2.160156 -5.476562 2.03125 -4.96875 2.03125 -4.40625 C 2.03125 -3.84375 2.160156 -3.328125 2.421875 -2.859375 C 2.679688 -2.398438 3.039062 -2.035156 3.5 -1.765625 C 3.96875 -1.503906 4.484375 -1.375 5.046875 -1.375 Z M 5.046875 -1.375 "/></g></g></g><g fill="#ffffff" fill-opacity="1"><g transform="translate(202.374383, 188.061673)"><g/></g></g><g fill="#ffffff" fill-opacity="1"><g transform="translate(207.208498, 188.061673)"><g><path d="M 12.015625 -2.625 L 15.0625 -12.078125 L 16.484375 -12.078125 L 12.4375 0 L 11.546875 0 L 8.4375 -9.421875 L 5.328125 0 L 4.484375 0 L 0.4375 -12.078125 L 1.90625 -12.078125 L 4.921875 -2.671875 L 8.03125 -12.078125 L 8.890625 -12.078125 Z M 12.015625 -2.625 "/></g></g></g><g fill="#ffffff" fill-opacity="1"><g transform="translate(224.127898, 188.061673)"><g><path d="M 4.9375 -8.625 C 5.707031 -8.625 6.410156 -8.445312 7.046875 -8.09375 C 7.691406 -7.75 8.195312 -7.253906 8.5625 -6.609375 C 8.925781 -5.972656 9.109375 -5.25 9.109375 -4.4375 C 9.109375 -4.15625 9.097656 -3.941406 9.078125 -3.796875 L 2.046875 -3.796875 C 2.128906 -2.953125 2.425781 -2.28125 2.9375 -1.78125 C 3.457031 -1.28125 4.125 -1.03125 4.9375 -1.03125 C 6.132812 -1.03125 7 -1.519531 7.53125 -2.5 L 8.90625 -2.5 C 8.5625 -1.632812 8.050781 -0.972656 7.375 -0.515625 C 6.695312 -0.0546875 5.882812 0.171875 4.9375 0.171875 C 4.144531 0.171875 3.421875 -0.0195312 2.765625 -0.40625 C 2.117188 -0.789062 1.609375 -1.316406 1.234375 -1.984375 C 0.867188 -2.648438 0.6875 -3.398438 0.6875 -4.234375 C 0.6875 -5.054688 0.867188 -5.800781 1.234375 -6.46875 C 1.609375 -7.132812 2.117188 -7.660156 2.765625 -8.046875 C 3.421875 -8.429688 4.144531 -8.625 4.9375 -8.625 Z M 4.9375 -7.421875 C 4.175781 -7.421875 3.546875 -7.203125 3.046875 -6.765625 C 2.546875 -6.328125 2.234375 -5.726562 2.109375 -4.96875 L 7.75 -4.96875 C 7.664062 -5.707031 7.363281 -6.300781 6.84375 -6.75 C 6.320312 -7.195312 5.6875 -7.421875 4.9375 -7.421875 Z M 4.9375 -7.421875 "/></g></g></g><g fill="#ffffff" fill-opacity="1"><g transform="translate(233.847929, 188.061673)"><g><path d="M 5.78125 -8.625 C 6.550781 -8.625 7.269531 -8.429688 7.9375 -8.046875 C 8.601562 -7.660156 9.132812 -7.128906 9.53125 -6.453125 C 9.925781 -5.785156 10.125 -5.046875 10.125 -4.234375 C 10.125 -3.410156 9.925781 -2.660156 9.53125 -1.984375 C 9.132812 -1.316406 8.601562 -0.789062 7.9375 -0.40625 C 7.269531 -0.0195312 6.550781 0.171875 5.78125 0.171875 C 5.144531 0.171875 4.554688 0.0390625 4.015625 -0.21875 C 3.484375 -0.488281 3.035156 -0.847656 2.671875 -1.296875 L 2.671875 0 L 1.375 0 L 1.375 -12.4375 L 2.671875 -12.4375 L 2.671875 -7.171875 C 3.035156 -7.617188 3.484375 -7.972656 4.015625 -8.234375 C 4.554688 -8.492188 5.144531 -8.625 5.78125 -8.625 Z M 5.703125 -1.03125 C 6.265625 -1.03125 6.773438 -1.171875 7.234375 -1.453125 C 7.703125 -1.734375 8.070312 -2.113281 8.34375 -2.59375 C 8.625 -3.082031 8.765625 -3.628906 8.765625 -4.234375 C 8.765625 -4.828125 8.625 -5.363281 8.34375 -5.84375 C 8.070312 -6.332031 7.703125 -6.71875 7.234375 -7 C 6.773438 -7.28125 6.265625 -7.421875 5.703125 -7.421875 C 5.140625 -7.421875 4.617188 -7.28125 4.140625 -7 C 3.660156 -6.71875 3.28125 -6.332031 3 -5.84375 C 2.726562 -5.363281 2.59375 -4.828125 2.59375 -4.234375 C 2.59375 -3.628906 2.726562 -3.082031 3 -2.59375 C 3.28125 -2.113281 3.660156 -1.734375 4.140625 -1.453125 C 4.617188 -1.171875 5.140625 -1.03125 5.703125 -1.03125 Z M 5.703125 -1.03125 "/></g></g></g><g fill="#ffffff" fill-opacity="1"><g transform="translate(244.65563, 188.061673)"><g><path d="M 4.21875 0.171875 C 3.582031 0.171875 3.015625 0.0546875 2.515625 -0.171875 C 2.015625 -0.398438 1.617188 -0.710938 1.328125 -1.109375 C 1.035156 -1.515625 0.878906 -1.976562 0.859375 -2.5 L 2.15625 -2.5 C 2.1875 -2.0625 2.382812 -1.707031 2.75 -1.4375 C 3.125 -1.164062 3.625 -1.03125 4.25 -1.03125 C 4.769531 -1.03125 5.195312 -1.140625 5.53125 -1.359375 C 5.875 -1.578125 6.046875 -1.890625 6.046875 -2.296875 C 6.046875 -2.609375 5.953125 -2.859375 5.765625 -3.046875 C 5.578125 -3.234375 5.347656 -3.375 5.078125 -3.46875 C 4.804688 -3.5625 4.425781 -3.664062 3.9375 -3.78125 C 3.3125 -3.914062 2.816406 -4.054688 2.453125 -4.203125 C 2.085938 -4.347656 1.769531 -4.582031 1.5 -4.90625 C 1.238281 -5.226562 1.109375 -5.664062 1.109375 -6.21875 C 1.109375 -6.664062 1.242188 -7.070312 1.515625 -7.4375 C 1.796875 -7.8125 2.164062 -8.101562 2.625 -8.3125 C 3.09375 -8.519531 3.601562 -8.625 4.15625 -8.625 C 4.695312 -8.625 5.195312 -8.507812 5.65625 -8.28125 C 6.113281 -8.050781 6.476562 -7.738281 6.75 -7.34375 C 7.03125 -6.957031 7.175781 -6.523438 7.1875 -6.046875 L 5.890625 -6.046875 C 5.867188 -6.429688 5.691406 -6.753906 5.359375 -7.015625 C 5.023438 -7.285156 4.601562 -7.421875 4.09375 -7.421875 C 3.632812 -7.421875 3.242188 -7.3125 2.921875 -7.09375 C 2.609375 -6.875 2.453125 -6.582031 2.453125 -6.21875 C 2.453125 -5.9375 2.539062 -5.707031 2.71875 -5.53125 C 2.894531 -5.363281 3.113281 -5.234375 3.375 -5.140625 C 3.632812 -5.046875 4 -4.941406 4.46875 -4.828125 C 5.09375 -4.691406 5.597656 -4.546875 5.984375 -4.390625 C 6.367188 -4.234375 6.695312 -3.988281 6.96875 -3.65625 C 7.25 -3.320312 7.390625 -2.867188 7.390625 -2.296875 C 7.390625 -1.554688 7.082031 -0.957031 6.46875 -0.5 C 5.863281 -0.0507812 5.113281 0.171875 4.21875 0.171875 Z M 4.21875 0.171875 "/></g></g></g><g fill="#ffffff" fill-opacity="1"><g transform="translate(252.994482, 188.061673)"><g><path d="M 2.59375 0 L 1.296875 0 L 1.296875 -8.453125 L 2.59375 -8.453125 Z M 2.703125 -10.078125 L 1.203125 -10.078125 L 1.203125 -11.671875 L 2.703125 -11.671875 Z M 2.703125 -10.078125 "/></g></g></g><g fill="#ffffff" fill-opacity="1"><g transform="translate(256.879041, 188.061673)"><g><path d="M 5.359375 -7.28125 L 3.1875 -7.28125 L 3.1875 -2.59375 C 3.1875 -2.164062 3.3125 -1.828125 3.5625 -1.578125 C 3.8125 -1.328125 4.148438 -1.203125 4.578125 -1.203125 L 5.359375 -1.203125 L 5.359375 0 L 4.484375 0 C 3.710938 0 3.085938 -0.234375 2.609375 -0.703125 C 2.140625 -1.171875 1.90625 -1.769531 1.90625 -2.5 L 1.90625 -7.28125 L 0.515625 -7.28125 L 0.515625 -8.453125 L 1.90625 -8.453125 L 1.90625 -10.703125 L 3.1875 -10.703125 L 3.1875 -8.453125 L 5.359375 -8.453125 Z M 5.359375 -7.28125 "/></g></g></g><g fill="#ffffff" fill-opacity="1"><g transform="translate(262.921689, 188.061673)"><g><path d="M 4.9375 -8.625 C 5.707031 -8.625 6.410156 -8.445312 7.046875 -8.09375 C 7.691406 -7.75 8.195312 -7.253906 8.5625 -6.609375 C 8.925781 -5.972656 9.109375 -5.25 9.109375 -4.4375 C 9.109375 -4.15625 9.097656 -3.941406 9.078125 -3.796875 L 2.046875 -3.796875 C 2.128906 -2.953125 2.425781 -2.28125 2.9375 -1.78125 C 3.457031 -1.28125 4.125 -1.03125 4.9375 -1.03125 C 6.132812 -1.03125 7 -1.519531 7.53125 -2.5 L 8.90625 -2.5 C 8.5625 -1.632812 8.050781 -0.972656 7.375 -0.515625 C 6.695312 -0.0546875 5.882812 0.171875 4.9375 0.171875 C 4.144531 0.171875 3.421875 -0.0195312 2.765625 -0.40625 C 2.117188 -0.789062 1.609375 -1.316406 1.234375 -1.984375 C 0.867188 -2.648438 0.6875 -3.398438 0.6875 -4.234375 C 0.6875 -5.054688 0.867188 -5.800781 1.234375 -6.46875 C 1.609375 -7.132812 2.117188 -7.660156 2.765625 -8.046875 C 3.421875 -8.429688 4.144531 -8.625 4.9375 -8.625 Z M 4.9375 -7.421875 C 4.175781 -7.421875 3.546875 -7.203125 3.046875 -6.765625 C 2.546875 -6.328125 2.234375 -5.726562 2.109375 -4.96875 L 7.75 -4.96875 C 7.664062 -5.707031 7.363281 -6.300781 6.84375 -6.75 C 6.320312 -7.195312 5.6875 -7.421875 4.9375 -7.421875 Z M 4.9375 -7.421875 "/></g></g></g><g fill="#ffffff" fill-opacity="1"><g transform="translate(272.64172, 188.061673)"><g><path d="M 4.21875 0.171875 C 3.582031 0.171875 3.015625 0.0546875 2.515625 -0.171875 C 2.015625 -0.398438 1.617188 -0.710938 1.328125 -1.109375 C 1.035156 -1.515625 0.878906 -1.976562 0.859375 -2.5 L 2.15625 -2.5 C 2.1875 -2.0625 2.382812 -1.707031 2.75 -1.4375 C 3.125 -1.164062 3.625 -1.03125 4.25 -1.03125 C 4.769531 -1.03125 5.195312 -1.140625 5.53125 -1.359375 C 5.875 -1.578125 6.046875 -1.890625 6.046875 -2.296875 C 6.046875 -2.609375 5.953125 -2.859375 5.765625 -3.046875 C 5.578125 -3.234375 5.347656 -3.375 5.078125 -3.46875 C 4.804688 -3.5625 4.425781 -3.664062 3.9375 -3.78125 C 3.3125 -3.914062 2.816406 -4.054688 2.453125 -4.203125 C 2.085938 -4.347656 1.769531 -4.582031 1.5 -4.90625 C 1.238281 -5.226562 1.109375 -5.664062 1.109375 -6.21875 C 1.109375 -6.664062 1.242188 -7.070312 1.515625 -7.4375 C 1.796875 -7.8125 2.164062 -8.101562 2.625 -8.3125 C 3.09375 -8.519531 3.601562 -8.625 4.15625 -8.625 C 4.695312 -8.625 5.195312 -8.507812 5.65625 -8.28125 C 6.113281 -8.050781 6.476562 -7.738281 6.75 -7.34375 C 7.03125 -6.957031 7.175781 -6.523438 7.1875 -6.046875 L 5.890625 -6.046875 C 5.867188 -6.429688 5.691406 -6.753906 5.359375 -7.015625 C 5.023438 -7.285156 4.601562 -7.421875 4.09375 -7.421875 C 3.632812 -7.421875 3.242188 -7.3125 2.921875 -7.09375 C 2.609375 -6.875 2.453125 -6.582031 2.453125 -6.21875 C 2.453125 -5.9375 2.539062 -5.707031 2.71875 -5.53125 C 2.894531 -5.363281 3.113281 -5.234375 3.375 -5.140625 C 3.632812 -5.046875 4 -4.941406 4.46875 -4.828125 C 5.09375 -4.691406 5.597656 -4.546875 5.984375 -4.390625 C 6.367188 -4.234375 6.695312 -3.988281 6.96875 -3.65625 C 7.25 -3.320312 7.390625 -2.867188 7.390625 -2.296875 C 7.390625 -1.554688 7.082031 -0.957031 6.46875 -0.5 C 5.863281 -0.0507812 5.113281 0.171875 4.21875 0.171875 Z M 4.21875 0.171875 "/></g></g></g></svg>