<svg xmlns="http://www.w3.org/2000/svg" xmlns:xlink="http://www.w3.org/1999/xlink" width="536" zoomAndPan="magnify" viewBox="0 0 402 241.499998" height="322" preserveAspectRatio="xMidYMid meet" version="1.0"><defs><g/></defs><path stroke-linecap="butt" transform="matrix(0.748271, 0, 0, 0.74845, 83.016555, 161.880023)" fill="none" stroke-linejoin="miter" d="M -0.00124236 2.498465 L 325.08695 2.498465 " stroke="#000000" stroke-width="5" stroke-opacity="1" stroke-miterlimit="4"/><path stroke-linecap="butt" transform="matrix(0.000000000000000046, -0.748185, 0.74845, 0.000000000000000046, 322.932557, 165.267504)" fill="none" stroke-linejoin="miter" d="M 0.00251191 2.501342 L 88.043736 2.501342 " stroke="#000000" stroke-width="5" stroke-opacity="1" stroke-miterlimit="4"/><g fill="#ffffff" fill-opacity="1"><g transform="translate(106.030607, 146.108039)"><g><path d="M 3.171875 -17.621094 L 7.875 -17.621094 L 7.875 -2.265625 L 5.296875 -2.265625 L 5.296875 0 L 12.859375 0 L 12.859375 -2.265625 L 10.3125 -2.265625 L 10.3125 -17.621094 L 14.984375 -17.621094 L 15.097656 -14.5625 L 17.28125 -14.5625 L 17.28125 -19.832031 L 0.90625 -19.832031 L 0.90625 -14.5625 L 3.085938 -14.5625 Z M 3.171875 -17.621094 "/></g></g></g><g fill="#ffffff" fill-opacity="1"><g transform="translate(130.675262, 146.108039)"><g><path d="M 8.46875 -14.277344 C 4.25 -14.277344 1.21875 -11.273438 1.21875 -7.054688 C 1.21875 -2.605469 4.25 0.285156 8.582031 0.285156 C 10.765625 0.285156 13.203125 -0.539062 14.617188 -2.210938 L 13.117188 -3.625 C 12.179688 -2.492188 10.226562 -1.871094 8.640625 -1.871094 C 5.949219 -1.871094 3.824219 -3.511719 3.570312 -6.089844 L 15.46875 -6.089844 C 16.003906 -11.671875 12.746094 -14.277344 8.46875 -14.277344 Z M 8.527344 -12.179688 C 11.273438 -12.179688 13.144531 -10.738281 13.257812 -8.046875 L 3.570312 -8.046875 C 3.964844 -10.738281 6.089844 -12.179688 8.527344 -12.179688 Z M 8.527344 -12.179688 "/></g></g></g><g fill="#ffffff" fill-opacity="1"><g transform="translate(153.705443, 146.108039)"><g><path d="M 14.050781 -1.871094 L 12.664062 -3.398438 C 11.699219 -2.351562 10.113281 -1.925781 8.78125 -1.925781 C 6.0625 -1.925781 3.570312 -3.769531 3.570312 -6.996094 C 3.570312 -10.058594 5.664062 -12.152344 8.667969 -12.179688 C 9.460938 -12.179688 10.625 -12.066406 11.386719 -11.699219 L 11.417969 -9.375 L 13.429688 -9.375 L 13.542969 -12.976562 C 12.039062 -13.796875 10.367188 -14.277344 8.640625 -14.277344 C 4.730469 -14.277344 1.246094 -12.011719 1.246094 -6.996094 C 1.246094 -2.351562 4.757812 0.285156 8.753906 0.285156 C 10.679688 0.285156 12.578125 -0.367188 14.050781 -1.871094 Z M 14.050781 -1.871094 "/></g></g></g><g fill="#ffffff" fill-opacity="1"><g transform="translate(175.092828, 146.108039)"><g><path d="M 5.382812 -11.785156 L 5.382812 -19.832031 L 0.792969 -19.832031 L 0.792969 -17.789062 L 3.085938 -17.789062 L 3.085938 -2.039062 L 0.707031 -2.039062 L 0.707031 0 L 7.648438 0 L 7.648438 -2.039062 L 5.410156 -2.039062 L 5.410156 -7.535156 C 5.410156 -10.113281 7.253906 -12.097656 9.859375 -12.097656 C 12.378906 -12.097656 13.796875 -10.566406 13.796875 -7.761719 L 13.796875 -2.039062 L 11.898438 -2.039062 L 11.898438 0 L 18.414062 0 L 18.414062 -2.039062 L 16.089844 -2.039062 L 16.089844 -7.820312 C 16.089844 -11.671875 14.164062 -14.277344 10.226562 -14.277344 C 8.441406 -14.277344 6.574219 -13.597656 5.382812 -11.785156 Z M 5.382812 -11.785156 "/></g></g></g><g fill="#ffffff" fill-opacity="1"><g transform="translate(200.303971, 146.108039)"><g/></g></g><g fill="#ffffff" fill-opacity="1"><g transform="translate(213.84556, 146.108039)"><g><path d="M 11.699219 -20.113281 C 5.269531 -20.113281 1.386719 -15.664062 1.417969 -9.773438 C 1.417969 -4.417969 4.675781 0.285156 11.726562 0.285156 C 14.730469 0.285156 17.222656 -0.792969 19.066406 -3.058594 L 19.066406 -10.226562 L 10.707031 -10.226562 L 10.707031 -8.101562 L 16.882812 -8.101562 L 16.882812 -4.023438 C 15.382812 -2.578125 13.796875 -2.039062 11.757812 -2.039062 C 6.34375 -2.039062 3.851562 -5.75 3.851562 -9.773438 C 3.851562 -14.078125 6.601562 -17.820312 11.699219 -17.820312 C 13.257812 -17.820312 14.984375 -17.449219 16.347656 -16.628906 L 16.402344 -13.625 L 18.613281 -13.625 C 18.640625 -15.070312 18.667969 -16.402344 18.667969 -17.761719 C 16.601562 -19.460938 14.304688 -20.113281 11.699219 -20.113281 Z M 11.699219 -20.113281 "/></g></g></g><g fill="#ffffff" fill-opacity="1"><g transform="translate(241.096047, 146.108039)"><g><path d="M 8.46875 -14.277344 C 4.25 -14.277344 1.21875 -11.273438 1.21875 -7.054688 C 1.21875 -2.605469 4.25 0.285156 8.582031 0.285156 C 10.765625 0.285156 13.203125 -0.539062 14.617188 -2.210938 L 13.117188 -3.625 C 12.179688 -2.492188 10.226562 -1.871094 8.640625 -1.871094 C 5.949219 -1.871094 3.824219 -3.511719 3.570312 -6.089844 L 15.46875 -6.089844 C 16.003906 -11.671875 12.746094 -14.277344 8.46875 -14.277344 Z M 8.527344 -12.179688 C 11.273438 -12.179688 13.144531 -10.738281 13.257812 -8.046875 L 3.570312 -8.046875 C 3.964844 -10.738281 6.089844 -12.179688 8.527344 -12.179688 Z M 8.527344 -12.179688 "/></g></g></g><g fill="#ffffff" fill-opacity="1"><g transform="translate(264.126222, 146.108039)"><g><path d="M 8.46875 -14.277344 C 4.25 -14.277344 1.21875 -11.273438 1.21875 -7.054688 C 1.21875 -2.605469 4.25 0.285156 8.582031 0.285156 C 10.765625 0.285156 13.203125 -0.539062 14.617188 -2.210938 L 13.117188 -3.625 C 12.179688 -2.492188 10.226562 -1.871094 8.640625 -1.871094 C 5.949219 -1.871094 3.824219 -3.511719 3.570312 -6.089844 L 15.46875 -6.089844 C 16.003906 -11.671875 12.746094 -14.277344 8.46875 -14.277344 Z M 8.527344 -12.179688 C 11.273438 -12.179688 13.144531 -10.738281 13.257812 -8.046875 L 3.570312 -8.046875 C 3.964844 -10.738281 6.089844 -12.179688 8.527344 -12.179688 Z M 8.527344 -12.179688 "/></g></g></g><g fill="#ffffff" fill-opacity="1"><g transform="translate(287.156397, 146.108039)"><g><path d="M 5.355469 -2.097656 L 5.355469 -5.46875 L 6.914062 -6.742188 L 10.792969 -1.386719 L 10.792969 0 L 15.496094 0 L 15.496094 -2.097656 L 13.117188 -2.097656 L 8.640625 -8.160156 L 13.316406 -12.039062 L 15.042969 -12.039062 L 15.042969 -13.996094 L 8.46875 -13.996094 L 8.46875 -12.097656 L 10.226562 -12.039062 L 5.355469 -7.820312 L 5.355469 -19.832031 L 0.792969 -19.832031 L 0.792969 -17.734375 L 3.058594 -17.734375 L 3.058594 -2.097656 L 0.765625 -2.097656 L 0.765625 0 L 7.367188 0 L 7.367188 -2.097656 Z M 5.355469 -2.097656 "/></g></g></g><path stroke-linecap="butt" transform="matrix(0.749659, 0, 0, 0.74845, 138.3681, 99.376142)" fill="none" stroke-linejoin="miter" d="M -0.00121763 2.498432 L 251.602799 2.498432 " stroke="#000000" stroke-width="5" stroke-opacity="1" stroke-miterlimit="4"/><g fill="#ffffff" fill-opacity="1"><g transform="translate(75.287225, 109.54952)"><g><path d="M 32.917969 -19.679688 C 28.277344 -21.519531 23.117188 -21.277344 18.199219 -21.238281 C 12.679688 -21.160156 7.160156 -20.917969 1.679688 -20.519531 C 0.359375 -20.398438 1.800781 -18.320312 2.71875 -18.359375 C 6.480469 -18.679688 10.199219 -18.878906 13.917969 -19 C 10.160156 -11.558594 7.679688 -3.601562 6.597656 4.679688 C 6.480469 5.558594 8.558594 7.039062 8.71875 5.757812 C 9.800781 -2.441406 12.320312 -10.359375 16.117188 -17.71875 C 16.320312 -18.078125 16 -18.640625 15.558594 -19.039062 C 16.480469 -19.039062 17.398438 -19.078125 18.359375 -19.078125 C 23.078125 -19.160156 28.4375 -19.636719 32.957031 -17.839844 C 34.558594 -17.199219 33.917969 -19.277344 32.917969 -19.679688 Z M 32.917969 -19.679688 "/></g></g></g><g fill="#ffffff" fill-opacity="1"><g transform="translate(92.765168, 109.54952)"><g><path d="M 18.597656 -5.160156 C 16.320312 -3.878906 13.519531 -2.640625 10.917969 -1.878906 C 11.199219 -2.71875 11.597656 -3.558594 11.800781 -4.480469 C 12.039062 -5.597656 12 -6.71875 11.121094 -7.558594 C 9.960938 -8.640625 8.917969 -8.121094 7.757812 -7.441406 C 5.398438 -6.039062 3.199219 -4.441406 1.199219 -2.601562 C 1.480469 -3.441406 1.800781 -4.320312 2.160156 -5.160156 C 2.917969 -7.121094 3.71875 -9.039062 4.640625 -10.917969 C 6.398438 -14.679688 8.480469 -18.320312 10.800781 -21.796875 C 11.398438 -22.679688 9.480469 -24.4375 8.960938 -23.679688 C 6.199219 -19.558594 3.757812 -15.199219 1.761719 -10.679688 C 0.761719 -8.4375 -0.160156 -6.160156 -0.960938 -3.839844 C -1.640625 -1.960938 -1.878906 -0.238281 -0.160156 1.121094 C 0.121094 1.320312 0.761719 1.640625 1.039062 1.28125 C 3.519531 -1.441406 6.441406 -3.757812 9.640625 -5.558594 C 9.480469 -5.039062 9.28125 -4.480469 9.078125 -3.960938 C 8.800781 -3.238281 8.519531 -2.398438 8.558594 -1.601562 C 8.757812 0.160156 10.480469 0.878906 11.960938 0.359375 C 14.640625 -0.519531 17.117188 -2.28125 19.558594 -3.640625 C 20.558594 -4.238281 19.398438 -5.640625 18.597656 -5.160156 Z M 18.597656 -5.160156 "/></g></g></g><g fill="#ffffff" fill-opacity="1"><g transform="translate(111.602954, 109.54952)"><g><path d="M 10.359375 -5 C 8 -3.160156 2.238281 -0.320312 -0.160156 0 C -0.078125 -0.320312 0.0390625 -0.640625 0.160156 -0.921875 C 1.601562 -1.601562 6.960938 -3.679688 4.679688 -6.039062 C 3.121094 -7.679688 1 -6.199219 -0.199219 -4.917969 C -1.519531 -3.480469 -3.359375 -0.640625 -1.917969 1.28125 C -1 2.558594 0.359375 2.441406 1.679688 2 C 5.28125 0.71875 8.597656 -1.679688 11.757812 -3.71875 C 12.519531 -4.238281 11.199219 -5.640625 10.359375 -5 Z M 10.359375 -5 "/></g></g></g><path stroke-linecap="butt" transform="matrix(0.000000000000000046, -0.750049, 0.74845, 0.000000000000000046, 81.140277, 165.190789)" fill="none" stroke-linejoin="miter" d="M -0.000823198 2.500422 L 43.918208 2.500422 " stroke="#000000" stroke-width="5" stroke-opacity="1" stroke-miterlimit="4"/></svg>